# xmcd CD database file
#
# Track frame offsets:
#	150
#	22291
#	43797
#	64836
#	84823
#	91211
#	114979
#	131112
#
# Disc length: 2046 seconds
#
# Revision: 1
# Processed by: cddbd v1.5.2PL0 Copyright (c) Steve Scherf et al.
# Submitted via: CDex 1.51
#
DISCID=6507fc08
DTITLE=Jean My Truong - Soul in Jazz  (Eddy Malka, piano and chant - Pascal Sarton, basse)
DYEAR=2006
DGENRE=Jazz
TTITLE0=À petits pas
TTITLE1=La saison des pleurs
TTITLE2=Noah ou les âmes d'enfant
TTITLE3=Here's that rainy day
TTITLE4=Geraldine
TTITLE5=Mrs and Mr Little ones
TTITLE6=Night in Tunisia
TTITLE7=Sightseeing
EXTD=YEAR: 2006
EXTT0=
EXTT1=
EXTT2=
EXTT3=
EXTT4=
EXTT5=
EXTT6=
EXTT7=
PLAYORDER=
